# xmcd
#
# Track frame offsets:
#	150
#	18097
#	37361
#	51102
#	75245
#	94947
#	115416
#	132442
#	149736
#
# Disc length: 2277 seconds
#
# Revision: 2
# Processed by: cddbd v1.5.1PL2 Copyright (c) Steve Scherf et al.
# Submitted via: audiograbber 1.83.01
#
DISCID=7c08e309
DTITLE=Frank Senatra - The blue eyes is back
DYEAR=1900
DGENRE=
TTITLE0=You Will Be My Music
TTITLE1=Youre So Right
TTITLE2=Winners
TTITLE3=Nobody Wins
TTITLE4=Send in the Clowns
TTITLE5=Dream Away
TTITLE6=Let Me Try Again
TTITLE7=There Used to Be a Ballpark
TTITLE8=Noah
EXTD=Schallplatte
EXTT0=
EXTT1=
EXTT2=
EXTT3=
EXTT4=
EXTT5=
EXTT6=
EXTT7=
EXTT8=
PLAYORDER=
